<mxfile host="app.diagrams.net" modified="2021-03-11T13:53:54.283Z" agent="5.0 (X11)" etag="8ZWiJit1y2tApw32FAdC" version="14.4.7" type="github">
  <diagram id="IabyM-OrlG6QpsjuMS36" name="Page-1">
    <mxGraphModel dx="796" dy="492" grid="1" gridSize="10" guides="1" tooltips="1" connect="1" arrows="1" fold="1" page="1" pageScale="1" pageWidth="827" pageHeight="1169" math="0" shadow="0">
      <root>
        <mxCell id="0" />
        <mxCell id="1" parent="0" />
        <mxCell id="ptSXDgsTjb9k3v0wsavj-3" value="" style="strokeWidth=3;outlineConnect=0;dashed=0;align=center;fontSize=8;shape=mxgraph.eip.messExp;html=1;verticalLabelPosition=bottom;verticalAlign=top" vertex="1" parent="1">
          <mxGeometry x="170" y="370" width="48" height="48" as="geometry" />
        </mxCell>
        <mxCell id="ptSXDgsTjb9k3v0wsavj-4" value="" style="strokeWidth=3;outlineConnect=0;dashed=0;align=center;fontSize=8;shape=mxgraph.eip.messExp;html=1;verticalLabelPosition=bottom;verticalAlign=top" vertex="1" parent="1">
          <mxGeometry x="290" y="370" width="48" height="48" as="geometry" />
        </mxCell>
        <mxCell id="ptSXDgsTjb9k3v0wsavj-5" value="" style="edgeStyle=orthogonalEdgeStyle;rounded=0;exitX=0;exitY=0.5;endArrow=none;dashed=0;html=1;strokeColor=#808080;strokeWidth=2;" edge="1" source="ptSXDgsTjb9k3v0wsavj-7" target="ptSXDgsTjb9k3v0wsavj-6" parent="1">
          <mxGeometry relative="1" as="geometry" />
        </mxCell>
        <mxCell id="ptSXDgsTjb9k3v0wsavj-6" value="" style="strokeWidth=2;dashed=0;align=center;fontSize=8;shape=ellipse;fillColor=#808080;strokeColor=none;" vertex="1" parent="1">
          <mxGeometry x="142" y="370" width="12" height="12" as="geometry" />
        </mxCell>
        <mxCell id="ptSXDgsTjb9k3v0wsavj-7" value="E" style="strokeWidth=2;dashed=0;align=center;fontSize=8;shape=rect;fillColor=#83BEFF;fontStyle=1;" vertex="1" parent="1">
          <mxGeometry x="170" y="380" width="12" height="20" as="geometry" />
        </mxCell>
        <mxCell id="ptSXDgsTjb9k3v0wsavj-8" value="" style="edgeStyle=orthogonalEdgeStyle;rounded=0;exitX=0;exitY=0.5;endArrow=none;dashed=0;html=1;strokeColor=#808080;strokeWidth=2;" edge="1" source="ptSXDgsTjb9k3v0wsavj-10" target="ptSXDgsTjb9k3v0wsavj-9" parent="1">
          <mxGeometry relative="1" as="geometry" />
        </mxCell>
        <mxCell id="ptSXDgsTjb9k3v0wsavj-9" value="" style="strokeWidth=2;dashed=0;align=center;fontSize=8;shape=ellipse;fillColor=#808080;strokeColor=none;" vertex="1" parent="1">
          <mxGeometry x="270" y="370" width="12" height="12" as="geometry" />
        </mxCell>
        <mxCell id="ptSXDgsTjb9k3v0wsavj-10" value="E" style="strokeWidth=2;dashed=0;align=center;fontSize=8;shape=rect;fillColor=#83BEFF;fontStyle=1;" vertex="1" parent="1">
          <mxGeometry x="286" y="380" width="12" height="20" as="geometry" />
        </mxCell>
        <mxCell id="ptSXDgsTjb9k3v0wsavj-14" value="" style="rounded=0;whiteSpace=wrap;html=1;" vertex="1" parent="1">
          <mxGeometry x="114.5" y="320" width="55.5" height="50" as="geometry" />
        </mxCell>
        <mxCell id="ptSXDgsTjb9k3v0wsavj-15" value="Sensor" style="text;html=1;strokeColor=none;fillColor=none;align=center;verticalAlign=middle;whiteSpace=wrap;rounded=0;" vertex="1" parent="1">
          <mxGeometry x="122.25" y="335" width="40" height="20" as="geometry" />
        </mxCell>
        <mxCell id="ptSXDgsTjb9k3v0wsavj-16" value="" style="rounded=0;whiteSpace=wrap;html=1;" vertex="1" parent="1">
          <mxGeometry x="248.25" y="320" width="55.5" height="50" as="geometry" />
        </mxCell>
        <mxCell id="ptSXDgsTjb9k3v0wsavj-17" value="Sensor" style="text;html=1;strokeColor=none;fillColor=none;align=center;verticalAlign=middle;whiteSpace=wrap;rounded=0;" vertex="1" parent="1">
          <mxGeometry x="255.75" y="335" width="40" height="20" as="geometry" />
        </mxCell>
      </root>
    </mxGraphModel>
  </diagram>
</mxfile>
